Name: Twilight of the Thunder God
Year: 2008
Genre: Melodic Death Metal
Label:Metal Blade Records
Contenents: rip of the album + Rip of the DVD "live in Summer Breeze 2007" + rip of the live's cd
Font: Original CDs and DVD

RECENSION

Twilight of the Thunder God is the seventh studio album by the Swedish melodic death metal band Amon Amarth.
Twilight of the Thunder God was released in September 2008.
The album has received largely positive reviews and the highest sales of the band's career

TRACKLIST

Album:

1. Twilight of the Thunder God
2. Free will sacrifice
3. Guardians of Asgaard
4. Where is your God?
5. Varyags of Miklagaard
6. Tattered banners and bloody flags
7. No fear for the setting sun
8. The hero
9. Live for the kill
10. Embrace the endlass ocean

Live:

1. Intro
2. Valhall awaits me
3. Runes to my memories
4. Cry of the black birds
5. Asator
6. Pursuit of vikings
7. Fate of norns
8. Without fear
9. With Oden on our side
10. Where silent Gods stand guard
11. An ancient sign of coming storm
12. Victorious march
13. Death in fire

CD'S RIP REPORTS




Cd 1:

Exact Audio Copy V1.0 beta 1 from 15. November 2010

EAC extraction logfile from 1. February 2011, 19:01

Amon Amarth / Twilight Of The Thunder God

Used drive : HL-DT-STDVD-RAM GSA-H58N Adapter: 4 ID: 0

Read mode : Secure
Utilize accurate stream : Yes
Defeat audio cache : No
Make use of C2 pointers : No

Read offset correction : 102
Overread into Lead-In and Lead-Out : No
Fill up missing offset samples with silence : Yes
Delete leading and trailing silent blocks : No
Null samples used in CRC calculations : Yes
Used interface : Installed external ASPI interface
Gap handling : Not detected, thus appended to previous track

Used output format : User Defined Encoder
Selected bitrate : 768 kBit/s
Quality : High
Add ID3 tag : Yes
Command line compressor : C:\Program Files (x86)\Exact Audio Copy\flac.exe
Additional command line options : -8 -V -T "artist=%a" -T "title=%t" -T "album=%g" -T "date=%y" -T "tracknumber=%n" -T "genre=%m" %s


TOC of the extracted CD

Track | Start | Length | Start sector | End sector
---------------------------------------------------------
1 | 0:00.00 | 4:08.56 | 0 | 18655
2 | 4:08.56 | 4:08.56 | 18656 | 37311
3 | 8:17.37 | 4:23.12 | 37312 | 57048
4 | 12:40.49 | 3:11.22 | 57049 | 71395
5 | 15:51.71 | 4:18.14 | 71396 | 90759
6 | 20:10.10 | 4:30.05 | 90760 | 111014
7 | 24:40.15 | 3:52.13 | 111015 | 128427
8 | 28:32.28 | 4:01.64 | 128428 | 146566
9 | 32:34.17 | 4:09.53 | 146567 | 165294
10 | 36:43.70 | 6:44.15 | 165295 | 195609


Track 1

Filename C:\Users\Zucca\01. Twilight Of The Thunder God.wav

Peak level 97.7 %
Extraction speed 2.4 X
Track quality 99.8 %
Copy CRC 954B2AFE
Accurately ripped (confidence 51) [0F6A1FC3]
Copy OK

Track 2

Filename C:\Users\Zucca\02. Free Will Sacrifice.wav

Peak level 97.7 %
Extraction speed 3.1 X
Track quality 100.0 %
Copy CRC 465DECCA
Accurately ripped (confidence 52) [F483E4F9]
Copy OK

Track 3

Filename C:\Users\Zucca\03. Guardians Of Asgaard.wav

Peak level 97.7 %
Extraction speed 3.3 X
Track quality 100.0 %
Copy CRC BB80CB17
Accurately ripped (confidence 50) [BBB10524]
Copy OK

Track 4

Filename C:\Users\Zucca\04. Where Is Your God.wav

Peak level 97.7 %
Extraction speed 3.6 X
Track quality 100.0 %
Copy CRC 3E09D07D
Accurately ripped (confidence 50) [C39997EC]
Copy OK

Track 5

Filename C:\Users\Zucca\05. Varyags Of Miklagaard.wav

Peak level 97.7 %
Extraction speed 3.7 X
Track quality 100.0 %
Copy CRC 07FA6F78
Accurately ripped (confidence 50) [44D27CB8]
Copy OK

Track 6

Filename C:\Users\Zucca\06. Tattered Banners And Bloody Flags.wav

Peak level 97.7 %
Extraction speed 3.9 X
Track quality 100.0 %
Copy CRC 477C0936
Accurately ripped (confidence 50) [BB75EFD5]
Copy OK

Track 7

Filename C:\Users\Zucca\07. No Fear For The Setting Sun.wav

Peak level 97.7 %
Extraction speed 4.2 X
Track quality 100.0 %
Copy CRC 1843C343
Accurately ripped (confidence 50) [EC2B10CE]
Copy OK

Track 8

Filename C:\Users\Zucca\08. The Hero.wav

Peak level 97.7 %
Extraction speed 4.4 X
Track quality 100.0 %
Copy CRC E9D0E8C0
Accurately ripped (confidence 50) [C72ED398]
Copy OK

Track 9

Filename C:\Users\Zucca\09. Live For The Kill.wav

Peak level 97.7 %
Extraction speed 4.5 X
Track quality 99.9 %
Copy CRC 82B1DBB8
Accurately ripped (confidence 50) [09777C99]
Copy OK

Track 10

Filename C:\Users\Zucca\10. Embrace Of The Endless Ocean.wav

Peak level 97.7 %
Extraction speed 4.9 X
Track quality 100.0 %
Copy CRC EE120A51
Accurately ripped (confidence 51) [56319A20]
Copy OK


All tracks accurately ripped

No errors occurred

End of status report





Cd 2:

Exact Audio Copy V1.0 beta 1 from 15. November 2010

EAC extraction logfile from 1. February 2011, 18:42

Amon Amarth / Twilight of the Thunder God bonus disc (LIVE 2007 SummerBreeze)

Used drive : HL-DT-STDVD-RAM GSA-H58N Adapter: 4 ID: 0

Read mode : Secure
Utilize accurate stream : Yes
Defeat audio cache : No
Make use of C2 pointers : No

Read offset correction : 102
Overread into Lead-In and Lead-Out : No
Fill up missing offset samples with silence : Yes
Delete leading and trailing silent blocks : No
Null samples used in CRC calculations : Yes
Used interface : Installed external ASPI interface
Gap handling : Not detected, thus appended to previous track

Used output format : User Defined Encoder
Selected bitrate : 768 kBit/s
Quality : High
Add ID3 tag : Yes
Command line compressor : C:\Program Files (x86)\Exact Audio Copy\flac.exe
Additional command line options : -8 -V -T "artist=%a" -T "title=%t" -T "album=%g" -T "date=%y" -T "tracknumber=%n" -T "genre=%m" %s


TOC of the extracted CD

Track | Start | Length | Start sector | End sector
---------------------------------------------------------
1 | 0:00.00 | 2:38.06 | 0 | 11855
2 | 2:38.06 | 4:48.01 | 11856 | 33456
3 | 7:26.07 | 4:45.62 | 33457 | 54893
4 | 12:11.69 | 4:34.36 | 54894 | 75479
5 | 16:46.30 | 3:35.54 | 75480 | 91658
6 | 20:22.09 | 5:50.52 | 91659 | 117960
7 | 26:12.61 | 6:50.28 | 117961 | 148738
8 | 33:03.14 | 4:31.35 | 148739 | 169098
9 | 37:34.49 | 4:47.09 | 169099 | 190632
10 | 42:21.58 | 7:31.51 | 190633 | 224508
11 | 49:53.34 | 4:56.68 | 224509 | 246776
12 | 54:50.27 | 8:47.41 | 246777 | 286342
13 | 63:37.68 | 6:02.28 | 286343 | 313520


Track 1

Filename C:\Users\Zucca\01. Intro.wav

Peak level 98.5 %
Extraction speed 2.6 X
Track quality 99.9 %
Copy CRC C9B3CEC4
Accurately ripped (confidence 39) [CE067520]
Copy OK

Track 2

Filename C:\Users\Zucca\02. Valhall Awaits Me.wav

Peak level 98.5 %
Extraction speed 3.0 X
Track quality 100.0 %
Copy CRC 7C3A9D4E
Accurately ripped (confidence 39) [512A4A17]
Copy OK

Track 3

Filename C:\Users\Zucca\03. Runes To My Memory.wav

Peak level 98.5 %
Extraction speed 3.3 X
Track quality 100.0 %
Copy CRC 2D1B91D3
Accurately ripped (confidence 39) [7D238E48]
Copy OK

Track 4

Filename C:\Users\Zucca\04. Cry Of The Black Birds.wav

Peak level 98.5 %
Extraction speed 3.6 X
Track quality 100.0 %
Copy CRC 3516854C
Accurately ripped (confidence 39) [28A41615]
Copy OK

Track 5

Filename C:\Users\Zucca\05. Asator.wav

Peak level 98.5 %
Extraction speed 3.7 X
Track quality 100.0 %
Copy CRC 57682946
Accurately ripped (confidence 39) [D1A5B4FF]
Copy OK

Track 6

Filename C:\Users\Zucca\06. Pursuit Of Vikings.wav

Peak level 98.5 %
Extraction speed 4.0 X
Track quality 100.0 %
Copy CRC 6770875A
Accurately ripped (confidence 39) [096C1094]
Copy OK

Track 7

Filename C:\Users\Zucca\07. Fate Of Norns.wav

Peak level 98.5 %
Extraction speed 4.3 X
Track quality 100.0 %
Copy CRC AB025942
Accurately ripped (confidence 39) [E9C89351]
Copy OK

Track 8

Filename C:\Users\Zucca\08. Without Fear.wav

Peak level 98.5 %
Extraction speed 4.6 X
Track quality 100.0 %
Copy CRC 9D27923F
Accurately ripped (confidence 39) [053A70F1]
Copy OK

Track 9

Filename C:\Users\Zucca\09. With Oden On Our Side.wav

Peak level 98.5 %
Extraction speed 4.8 X
Track quality 100.0 %
Copy CRC 64900763
Accurately ripped (confidence 39) [E5687F01]
Copy OK

Track 10

Filename C:\Users\Zucca\10. Where The Silent Gods Stand Guard.wav

Peak level 98.5 %
Extraction speed 5.1 X
Track quality 100.0 %
Copy CRC E6F7252D
Accurately ripped (confidence 39) [D51B707D]
Copy OK

Track 11

Filename C:\Users\Zucca\11. An Ancient Sign Of Coming Storm.wav

Peak level 98.5 %
Extraction speed 5.3 X
Track quality 100.0 %
Copy CRC 34511F8E
Accurately ripped (confidence 39) [6826802B]
Copy OK

Track 12

Filename C:\Users\Zucca\12. Victorious March.wav

Peak level 98.5 %
Extraction speed 5.6 X
Track quality 100.0 %
Copy CRC 52D95901
Accurately ripped (confidence 39) [920F9D3D]
Copy OK

Track 13

Filename C:\Users\Zucca\13. Death In Fire.wav

Peak level 98.5 %
Extraction speed 5.9 X
Track quality 100.0 %
Copy CRC C1790B5B
Accurately ripped (confidence 39) [F45818BC]
Copy OK


All tracks accurately ripped

No errors occurred

End of status report





DIVX RIP REPORT

[ About file ]

Name: Live Summer Breeze 2007.avi
Date: 3/02/2011 02:28:54
Size: 1,301,938,646 bytes (1241.625 MB)

[ Generic infos ]

Play duration: 01:11:44 (4303.92 s)
Container type: AVI OpenDML
Number of streams: 2
Type of stream nr. 0: video
Type of stream nr. 1: audio
Audio streams: 1

[ Relevant data ]

Resolution: 720 x 576
Width: multiple of 16
Height: multiple of 32
Average DRF: 4.465913
Standard deviation: 0.845430
Std. dev. weighted mean: 0

[ Video track ]

FourCC: DX50/DX50
Resolution: 720 x 576
Frame aspect ratio: 5:4 = 1.25
Pixel aspect ratio: 1:1 = 1
Display aspect ratio: 5:4 = 1.25
Framerate: 25 fps
Number of frames: 107598
Stream size: 1,212,700,963 bytes
Bitrate: 2254.132907 kbps
Qf: 0.217412
Key frames: 12922 (0; 159; 160; 162; 163; ... 107485)
Null frames: 0
Min key int: 1
Max key int: 300
Avg key int: 8.326729
Delay: 0 ms

[ Audio track ]

Audio tag: 0x55 (MP3)
Bitrate (container): 160 kbps CBR
Channels (container): 2
Sample rate (container): 48000 Hz
Chunks: 21519
Stream size: 86,074,972 bytes
Preload: 0 ms
Max A/V diff: 72 ms
Type: MPEG-1 Layer III
MPEG frames: 179322
Play duration: 01:11:44 (4303.728 s)
Chunk-aligned: No
Emphasis: none
Mode: joint stereo
Delay: 0 ms

[ About MPEG4 encoding ]

User data: DivX503b2816p
Packed bitstream: Yes (*)
QPel: No
GMC: No
Interlaced: No
Aspect ratio: Square pixels
Quant type: H.263
Number of frames: 107598
Drop/delay frames: 3
Corrupted frames: 0

I-VOPs: 12922 ( 12.010 %) ###
P-VOPs: 69608 ( 64.693 %) ################
B-VOPs: 25065 ( 23.295 %) ######
S-VOPs: 0 ( 0.000 %)
N-VOPs: 0 ( 0.000 %)

Max consecutive B-VOPs: 3 (*)
1 consec: 19994 ( 89.100 %) ######################
2 consec: 2267 ( 10.102 %) ###
3 consec: 179 ( 0.798 %)

[ DRF analysis ]

Average DRF: 4.465913
Standard deviation: 0.845430
Max DRF: 6

DRF<4: 0 ( 0.000 %)
DRF=4: 82530 ( 76.704 %) ###################
DRF=5: 0 ( 0.000 %)
DRF=6: 25065 ( 23.296 %) ######
DRF>6: 0 ( 0.000 %)

I-VOPs average DRF: 4
I-VOPs std. deviation: 0
I-VOPs max DRF: 4

P-VOPs average DRF: 4
P-VOPs std. deviation: 0
P-VOPs max DRF: 4

B-VOPs average DRF: 6
B-VOPs std. deviation: 0
B-VOPs max DRF: 6

[ Profile compliancy ]

Profile to check: MTK PAL 6000
Resolution: Ok
Framerate: Ok
Buffer underflow: 00:04:26 (frame 6657)
Buffer underflow: 00:04:27 (frame 6664)
Buffer underflow: 00:04:27 (frame 6674)
Buffer underflow: 00:04:40 (frame 7008)
Buffer underflow: 00:04:41 (frame 7016)
Buffer underflow: 00:04:41 (frame 7025)
Buffer underflow: 00:04:50 (frame 7248)
Buffer underflow: 01:01:29 (frame 92223)
Buffer underflow: 01:02:08 (frame 93198)
Buffer underflow: 01:02:09 (frame 93224)

This report was created by AVInaptic (18-11-2007) on 3 feb 2011, h 12:05:14